#define bullet_width 10
#define bullet_height 10
static unsigned char bullet_bits[] = {
   0x00, 0x00, 0x08, 0x00, 0x38, 0x00, 0x78, 0x00, 0xf8, 0x00, 0x78, 0x00,
   0x38, 0x00, 0x08, 0x00, 0x00, 0x00, 0x00, 0x00 };
