#define bullet_width 15
#define bullet_height 15
static unsigned char bullet_bits[] = {
   0x00, 0x00, 0x00, 0x00, 0x00, 0x00, 0x10, 0x00, 0x70, 0x00, 0xf0, 0x00,
   0xf0, 0x03, 0xf0, 0x07, 0xf0, 0x03, 0xf0, 0x00, 0x70, 0x00, 0x10, 0x00,
   0x00, 0x00, 0x00, 0x00, 0x00, 0x00 };
