#define close_width 21
#define close_height 21
static unsigned char close_bits[] = {
   0x00, 0x1f, 0x00, 0xc0, 0x7f, 0x00, 0xf0, 0xff, 0x01, 0xf8, 0xff, 0x03,
   0xfc, 0xff, 0x07, 0xfc, 0xff, 0x07, 0x7e, 0xdf, 0x0f, 0x3e, 0x8e, 0x0f,
   0x7f, 0xc4, 0x1f, 0xff, 0xe0, 0x1f, 0xff, 0xf1, 0x1f, 0xff, 0xe0, 0x1f,
   0x7f, 0xc4, 0x1f, 0x3e, 0x8e, 0x0f, 0x7e, 0xdf, 0x0f, 0xfc, 0xff, 0x07,
   0xfc, 0xff, 0x07, 0xf8, 0xff, 0x03, 0xf0, 0xff, 0x01, 0xc0, 0x7f, 0x00,
   0x00, 0x1f, 0x00 };
