#define max_toggled_hover_width 21
#define max_toggled_hover_height 21
static unsigned char max_toggled_hover_bits[] = {
   0x00, 0x1f, 0x00, 0xc0, 0x7f, 0x00, 0xf0, 0xff, 0x01, 0xf8, 0xff, 0x03,
   0xfc, 0xf7, 0x07, 0xfc, 0xe7, 0x07, 0xfe, 0xc7, 0x0f, 0xfe, 0x87, 0x0f,
   0xff, 0x07, 0x1f, 0xff, 0x0f, 0x1e, 0xff, 0xff, 0x1f, 0x0f, 0xfe, 0x1f,
   0x1f, 0xfc, 0x1f, 0x3e, 0xfc, 0x0f, 0x7e, 0xfc, 0x0f, 0xfc, 0xfc, 0x07,
   0xfc, 0xfd, 0x07, 0xf8, 0xff, 0x03, 0xf0, 0xff, 0x01, 0xc0, 0x7f, 0x00,
   0x00, 0x1f, 0x00 };
