#define max_toggled_width 21
#define max_toggled_height 21
static unsigned char max_toggled_bits[] = {
   0x00, 0x00, 0x00, 0x00, 0x00, 0x00, 0x00, 0x00, 0x00, 0x00, 0x00, 0x00,
   0x00, 0x08, 0x00, 0x00, 0x18, 0x00, 0x00, 0x38, 0x00, 0x00, 0x78, 0x00,
   0x00, 0xf8, 0x00, 0x00, 0xf0, 0x01, 0x00, 0x00, 0x00, 0xf0, 0x01, 0x00,
   0xe0, 0x03, 0x00, 0xc0, 0x03, 0x00, 0x80, 0x03, 0x00, 0x00, 0x03, 0x00,
   0x00, 0x02, 0x00, 0x00, 0x00, 0x00, 0x00, 0x00, 0x00, 0x00, 0x00, 0x00,
   0x00, 0x00, 0x00 };
