#define shade_pressed_width 21
#define shade_pressed_height 21
static unsigned char shade_pressed_bits[] = {
   0x00, 0x1f, 0x00, 0xc0, 0x7f, 0x00, 0xf0, 0xff, 0x01, 0xf8, 0xff, 0x03,
   0xfc, 0xff, 0x07, 0xfc, 0xff, 0x07, 0xfe, 0xf9, 0x0f, 0xfe, 0xf0, 0x0f,
   0x7f, 0xe0, 0x1f, 0x3f, 0xc0, 0x1f, 0x1f, 0x80, 0x1f, 0x0f, 0x00, 0x1f,
   0xff, 0xff, 0x1f, 0xfe, 0xff, 0x0f, 0x0e, 0x00, 0x0f, 0x0c, 0x00, 0x07,
   0xfc, 0xff, 0x07, 0xf8, 0xff, 0x03, 0xf0, 0xff, 0x01, 0xc0, 0x7f, 0x00,
   0x00, 0x1f, 0x00 };
