#define iconify_hover_width 7
#define iconify_hover_height 7
static unsigned char iconify_hover_bits[] = {
   0x1c, 0x3e, 0x7f, 0x7f, 0x63, 0x3e, 0x1c };
