#define max_width 7
#define max_height 7
static unsigned char max_bits[] = {
   0x00, 0x00, 0x18, 0x14, 0x0c, 0x00, 0x00 };
