#define max_pressed_width 7
#define max_pressed_height 7
static unsigned char max_pressed_bits[] = {
   0x1c, 0x3e, 0x67, 0x6b, 0x73, 0x3e, 0x1c };
