#define shade_toggled_pressed_width 7
#define shade_toggled_pressed_height 7
static unsigned char shade_toggled_pressed_bits[] = {
   0x1c, 0x36, 0x63, 0x7f, 0x63, 0x3e, 0x1c };
