#define desk_toggled_hover_width 7
#define desk_toggled_hover_height 7
static unsigned char desk_toggled_hover_bits[] = {
   0x1c, 0x36, 0x77, 0x41, 0x77, 0x36, 0x1c };
