#define max_toggled_pressed_width 7
#define max_toggled_pressed_height 7
static unsigned char max_toggled_pressed_bits[] = {
   0x1c, 0x2e, 0x4f, 0x7f, 0x79, 0x3a, 0x1c };
