#define max_toggled_hover_width 14
#define max_toggled_hover_height 14
static unsigned char max_toggled_hover_bits[] = {
   0xe0, 0x01, 0xf8, 0x07, 0xfc, 0x0e, 0xfe, 0x1c, 0xfe, 0x18, 0xff, 0x30,
   0xff, 0x3f, 0xff, 0x3f, 0xc3, 0x3f, 0xc6, 0x1f, 0xce, 0x1f, 0xdc, 0x0f,
   0xf8, 0x07, 0xe0, 0x01 };
