#define bullet_width 20
#define bullet_height 20
static unsigned char bullet_bits[] = {
   0x00, 0x00, 0x00, 0x00, 0x00, 0x00, 0x00, 0x00, 0x00, 0x00, 0x00, 0x00,
   0x40, 0x00, 0x00, 0xc0, 0x01, 0x00, 0xc0, 0x07, 0x00, 0xc0, 0x0f, 0x00,
   0xc0, 0x3f, 0x00, 0xc0, 0x7f, 0x00, 0xc0, 0x3f, 0x00, 0xc0, 0x0f, 0x00,
   0xc0, 0x07, 0x00, 0xc0, 0x01, 0x00, 0x40, 0x00, 0x00, 0x00, 0x00, 0x00,
   0x00, 0x00, 0x00, 0x00, 0x00, 0x00, 0x00, 0x00, 0x00, 0x00, 0x00, 0x00 };
