#define desk_toggled_width 21
#define desk_toggled_height 21
static unsigned char desk_toggled_bits[] = {
   0x00, 0x1f, 0x00, 0xc0, 0x7f, 0x00, 0xf0, 0xff, 0x01, 0xf8, 0xff, 0x03,
   0xfc, 0xf0, 0x07, 0xfc, 0xf0, 0x07, 0xfe, 0xf0, 0x0f, 0xfe, 0xf0, 0x0f,
   0x0f, 0x00, 0x1f, 0x0f, 0x00, 0x1f, 0x0f, 0x00, 0x1f, 0x0f, 0x00, 0x1f,
   0xff, 0xf0, 0x1f, 0xfe, 0xf0, 0x0f, 0xfe, 0xf0, 0x0f, 0xfc, 0xf0, 0x07,
   0xfc, 0xff, 0x07, 0xf8, 0xff, 0x03, 0xf0, 0xff, 0x01, 0xc0, 0x7f, 0x00,
   0x00, 0x1f, 0x00 };
