#define max_width 21
#define max_height 21
static unsigned char max_bits[] = {
   0x00, 0x00, 0x00, 0x00, 0x00, 0x00, 0x00, 0x00, 0x00, 0x00, 0x00, 0x00,
   0x00, 0x00, 0x00, 0x00, 0x00, 0x00, 0x00, 0x3e, 0x00, 0x00, 0x7c, 0x00,
   0x00, 0x78, 0x00, 0x40, 0x70, 0x00, 0xc0, 0x60, 0x00, 0xc0, 0x41, 0x00,
   0xc0, 0x03, 0x00, 0xc0, 0x07, 0x00, 0x80, 0x0f, 0x00, 0x00, 0x00, 0x00,
   0x00, 0x00, 0x00, 0x00, 0x00, 0x00, 0x00, 0x00, 0x00, 0x00, 0x00, 0x00,
   0x00, 0x00, 0x00 };
