#define max_hover_width 21
#define max_hover_height 21
static unsigned char max_hover_bits[] = {
   0x00, 0x1f, 0x00, 0xc0, 0x7f, 0x00, 0xf0, 0xff, 0x01, 0xf8, 0xff, 0x03,
   0xfc, 0xff, 0x07, 0xfc, 0xff, 0x07, 0xfe, 0xc1, 0x0f, 0xfe, 0x83, 0x0f,
   0xff, 0x87, 0x1f, 0xbf, 0x8f, 0x1f, 0x3f, 0x9f, 0x1f, 0x3f, 0xbe, 0x1f,
   0x3f, 0xfc, 0x1f, 0x3e, 0xf8, 0x0f, 0x7e, 0xf0, 0x0f, 0xfc, 0xff, 0x07,
   0xfc, 0xff, 0x07, 0xf8, 0xff, 0x03, 0xf0, 0xff, 0x01, 0xc0, 0x7f, 0x00,
   0x00, 0x1f, 0x00 };
